# xmcd
#
# Track frame offsets: 
#        150
#        19006
#        57037
#        72577
#        96298
#        115271
#        133935
#        154313
#        170543
#        192452
#        222657
#        249992
#        277255
#        292633
#        317570
#
# Disc length: 4509 seconds
#
# Revision: 1
# Processed by: cddbd v1.5.2PL0 Copyright (c) Steve Scherf et al.
# Submitted via: ExactAudioCopy v0.99pb5
#
DISCID=e7119b0f
DTITLE=Various Artist - LIVING THE BLUES - BLUES FEELIN´
DYEAR=2001
DGENRE=Blues
TTITLE0=PAUL BUTTERFIELD BLUESBAND - Born Under A Bad Sign (1967)
TTITLE1=BUDDY GUY - Five Long Years (1991)
TTITLE2=BILLY BOY ARNOLD - Worried Life Blues (1993)
TTITLE3=KOKO TAYLOR - I Cried Like A Baby (1985)
TTITLE4=B. B. KING - The Lowdown (1991)
TTITLE5=ELVIN BISHOP - Blue Flame (1995)
TTITLE6=A. C. REED - She's Fine (1987)
TTITLE7=ROY BUCHANAN - The Messiah Will Come Again (1972)
TTITLE8=FLEETWOOD MAC - Jumpin' At Shadows (1988)
TTITLE9=WILLIE DIXON - I Can't Quit You Baby (1970)
TTITLE10=PHILIP WALKER - The Blues And My Guitar (1984)
TTITLE11=LORRY CARLTON - Cold Day In Hell (1993)
TTITLE12=GARY MOORE - Parisienne Walkways (1978)
TTITLE13=FLOYD DIXON - My Song Is Don't Worry (1996)
TTITLE14=RONNIE EARL - Everyday Kinda Man (1997)
EXTD=YEAR: 2001
EXTT0=
EXTT1=
EXTT2=
EXTT3=
EXTT4=
EXTT5=
EXTT6=
EXTT7=
EXTT8=
EXTT9=
EXTT10=
EXTT11=
EXTT12=
EXTT13=
EXTT14=
PLAYORDER=
